<svg width="205" height="51" viewBox="0 0 205 51" fill="none" xmlns="http://www.w3.org/2000/svg">
<rect width="22.4643" height="22.4643" fill="#481184"/>
<path d="M40.375 0L53.2571 22.3125H27.4929L40.375 0Z" fill="#481184"/>
<circle cx="11.2321" cy="39.7678" r="11.2321" fill="#481184"/>
<path d="M81.3216 27H67.7107V7.55976H71.6015V23.1092H81.3216V27ZM101.724 17.3612C101.724 18.2831 101.602 19.1733 101.358 20.0319C101.123 20.8814 100.789 21.6813 100.355 22.4314C99.9213 23.1725 99.3971 23.8503 98.7826 24.4649C98.168 25.0795 97.4902 25.6082 96.7491 26.051C96.008 26.4848 95.2081 26.8192 94.3495 27.0542C93.491 27.2982 92.6007 27.4203 91.6789 27.4203C90.757 27.4203 89.8668 27.2982 89.0082 27.0542C88.1587 26.8192 87.3588 26.4848 86.6087 26.051C85.8676 25.6082 85.1898 25.0795 84.5752 24.4649C83.9606 23.8503 83.4319 23.1725 82.9891 22.4314C82.5553 21.6813 82.2163 20.8814 81.9723 20.0319C81.7373 19.1733 81.6198 18.2831 81.6198 17.3612C81.6198 16.4394 81.7373 15.5491 81.9723 14.6906C82.2163 13.832 82.5553 13.0321 82.9891 12.291C83.4319 11.5499 83.9606 10.8721 84.5752 10.2575C85.1898 9.64297 85.8676 9.11878 86.6087 8.68496C87.3588 8.25115 88.1587 7.91675 89.0082 7.68177C89.8668 7.43775 90.757 7.31574 91.6789 7.31574C92.6007 7.31574 93.491 7.43775 94.3495 7.68177C95.2081 7.91675 96.008 8.25115 96.7491 8.68496C97.4902 9.11878 98.168 9.64297 98.7826 10.2575C99.3971 10.8721 99.9213 11.5499 100.355 12.291C100.789 13.0321 101.123 13.832 101.358 14.6906C101.602 15.5491 101.724 16.4394 101.724 17.3612ZM97.8607 17.3612C97.8607 16.5117 97.698 15.7118 97.3727 14.9617C97.0473 14.2025 96.6045 13.5473 96.0441 12.996C95.4928 12.4356 94.8376 11.9928 94.0784 11.6674C93.3283 11.3421 92.5284 11.1794 91.6789 11.1794C90.8203 11.1794 90.0159 11.3421 89.2658 11.6674C88.5157 11.9928 87.8604 12.4356 87.3001 12.996C86.7397 13.5473 86.2969 14.2025 85.9715 14.9617C85.6462 15.7118 85.4835 16.5117 85.4835 17.3612C85.4835 18.2108 85.6462 19.0106 85.9715 19.7607C86.2969 20.5018 86.7397 21.1526 87.3001 21.7129C87.8604 22.2732 88.5157 22.7161 89.2658 23.0415C90.0159 23.3668 90.8203 23.5295 91.6789 23.5295C92.5284 23.5295 93.3283 23.3668 94.0784 23.0415C94.8376 22.7161 95.4928 22.2732 96.0441 21.7129C96.6045 21.1526 97.0473 20.5018 97.3727 19.7607C97.698 19.0106 97.8607 18.2108 97.8607 17.3612ZM119.755 25.0343C118.851 25.8025 117.843 26.3945 116.732 26.8102C115.62 27.2169 114.463 27.4203 113.261 27.4203C112.339 27.4203 111.449 27.2982 110.59 27.0542C109.741 26.8192 108.946 26.4848 108.204 26.051C107.463 25.6082 106.786 25.084 106.171 24.4785C105.556 23.8639 105.032 23.1861 104.598 22.445C104.165 21.6948 103.826 20.8905 103.582 20.0319C103.347 19.1733 103.229 18.2831 103.229 17.3612C103.229 16.4394 103.347 15.5537 103.582 14.7041C103.826 13.8546 104.165 13.0592 104.598 12.3181C105.032 11.568 105.556 10.8902 106.171 10.2846C106.786 9.67008 107.463 9.14589 108.204 8.71208C108.946 8.27826 109.741 7.94387 110.59 7.70888C111.449 7.46486 112.339 7.34285 113.261 7.34285C114.463 7.34285 115.62 7.55072 116.732 7.96646C117.843 8.37316 118.851 8.96061 119.755 9.72882L117.721 13.118C117.134 12.5215 116.456 12.056 115.688 11.7217C114.92 11.3782 114.111 11.2065 113.261 11.2065C112.412 11.2065 111.612 11.3692 110.862 11.6945C110.12 12.0199 109.47 12.4627 108.909 13.0231C108.349 13.5744 107.906 14.2251 107.581 14.9752C107.255 15.7163 107.093 16.5117 107.093 17.3612C107.093 18.2198 107.255 19.0242 107.581 19.7743C107.906 20.5244 108.349 21.1797 108.909 21.74C109.47 22.3004 110.12 22.7432 110.862 23.0686C111.612 23.3939 112.412 23.5566 113.261 23.5566C113.749 23.5566 114.224 23.4979 114.685 23.3804C115.145 23.2629 115.584 23.1002 116 22.8923V17.3612H119.755V25.0343ZM141.798 17.3612C141.798 18.2831 141.676 19.1733 141.432 20.0319C141.197 20.8814 140.862 21.6813 140.429 22.4314C139.995 23.1725 139.471 23.8503 138.856 24.4649C138.241 25.0795 137.564 25.6082 136.823 26.051C136.081 26.4848 135.282 26.8192 134.423 27.0542C133.564 27.2982 132.674 27.4203 131.752 27.4203C130.83 27.4203 129.94 27.2982 129.082 27.0542C128.232 26.8192 127.432 26.4848 126.682 26.051C125.941 25.6082 125.263 25.0795 124.649 24.4649C124.034 23.8503 123.505 23.1725 123.063 22.4314C122.629 21.6813 122.29 20.8814 122.046 20.0319C121.811 19.1733 121.693 18.2831 121.693 17.3612C121.693 16.4394 121.811 15.5491 122.046 14.6906C122.29 13.832 122.629 13.0321 123.063 12.291C123.505 11.5499 124.034 10.8721 124.649 10.2575C125.263 9.64297 125.941 9.11878 126.682 8.68496C127.432 8.25115 128.232 7.91675 129.082 7.68177C129.94 7.43775 130.83 7.31574 131.752 7.31574C132.674 7.31574 133.564 7.43775 134.423 7.68177C135.282 7.91675 136.081 8.25115 136.823 8.68496C137.564 9.11878 138.241 9.64297 138.856 10.2575C139.471 10.8721 139.995 11.5499 140.429 12.291C140.862 13.0321 141.197 13.832 141.432 14.6906C141.676 15.5491 141.798 16.4394 141.798 17.3612ZM137.934 17.3612C137.934 16.5117 137.771 15.7118 137.446 14.9617C137.121 14.2025 136.678 13.5473 136.118 12.996C135.566 12.4356 134.911 11.9928 134.152 11.6674C133.402 11.3421 132.602 11.1794 131.752 11.1794C130.894 11.1794 130.089 11.3421 129.339 11.6674C128.589 11.9928 127.934 12.4356 127.374 12.996C126.813 13.5473 126.37 14.2025 126.045 14.9617C125.72 15.7118 125.557 16.5117 125.557 17.3612C125.557 18.2108 125.72 19.0106 126.045 19.7607C126.37 20.5018 126.813 21.1526 127.374 21.7129C127.934 22.2732 128.589 22.7161 129.339 23.0415C130.089 23.3668 130.894 23.5295 131.752 23.5295C132.602 23.5295 133.402 23.3668 134.152 23.0415C134.911 22.7161 135.566 22.2732 136.118 21.7129C136.678 21.1526 137.121 20.5018 137.446 19.7607C137.771 19.0106 137.934 18.2108 137.934 17.3612ZM151.898 27H148.02V11.4505H142.177V7.55976H157.727V11.4505H151.898V27ZM163.678 27H159.788V7.55976H163.678V27ZM171.189 11.4505V19.232H175.079C175.613 19.232 176.114 19.1326 176.584 18.9338C177.054 18.7259 177.465 18.4458 177.818 18.0933C178.17 17.7408 178.446 17.3296 178.645 16.8596C178.853 16.3806 178.957 15.8745 178.957 15.3413C178.957 14.8081 178.853 14.3065 178.645 13.8365C178.446 13.3575 178.17 12.9418 177.818 12.5893C177.465 12.2368 177.054 11.9612 176.584 11.7623C176.114 11.5545 175.613 11.4505 175.079 11.4505H171.189ZM171.189 27H167.298V7.55976H175.079C175.793 7.55976 176.48 7.65466 177.14 7.84445C177.8 8.02521 178.414 8.2873 178.984 8.63074C179.562 8.96513 180.086 9.37183 180.556 9.85083C181.035 10.3208 181.442 10.845 181.776 11.4234C182.12 12.0018 182.382 12.6209 182.563 13.2807C182.752 13.9404 182.847 14.6273 182.847 15.3413C182.847 16.4077 182.644 17.4154 182.237 18.3644C181.831 19.3043 181.275 20.1268 180.57 20.8317C179.865 21.5367 179.038 22.0925 178.089 22.4992C177.149 22.9059 176.146 23.1092 175.079 23.1092H171.189V27ZM204.186 17.3612C204.186 18.2831 204.064 19.1733 203.82 20.0319C203.585 20.8814 203.25 21.6813 202.816 22.4314C202.383 23.1725 201.858 23.8503 201.244 24.4649C200.629 25.0795 199.951 25.6082 199.21 26.051C198.469 26.4848 197.669 26.8192 196.811 27.0542C195.952 27.2982 195.062 27.4203 194.14 27.4203C193.218 27.4203 192.328 27.2982 191.469 27.0542C190.62 26.8192 189.82 26.4848 189.07 26.051C188.329 25.6082 187.651 25.0795 187.036 24.4649C186.422 23.8503 185.893 23.1725 185.45 22.4314C185.016 21.6813 184.678 20.8814 184.433 20.0319C184.199 19.1733 184.081 18.2831 184.081 17.3612C184.081 16.4394 184.199 15.5491 184.433 14.6906C184.678 13.832 185.016 13.0321 185.45 12.291C185.893 11.5499 186.422 10.8721 187.036 10.2575C187.651 9.64297 188.329 9.11878 189.07 8.68496C189.82 8.25115 190.62 7.91675 191.469 7.68177C192.328 7.43775 193.218 7.31574 194.14 7.31574C195.062 7.31574 195.952 7.43775 196.811 7.68177C197.669 7.91675 198.469 8.25115 199.21 8.68496C199.951 9.11878 200.629 9.64297 201.244 10.2575C201.858 10.8721 202.383 11.5499 202.816 12.291C203.25 13.0321 203.585 13.832 203.82 14.6906C204.064 15.5491 204.186 16.4394 204.186 17.3612ZM200.322 17.3612C200.322 16.5117 200.159 15.7118 199.834 14.9617C199.508 14.2025 199.066 13.5473 198.505 12.996C197.954 12.4356 197.299 11.9928 196.54 11.6674C195.789 11.3421 194.99 11.1794 194.14 11.1794C193.281 11.1794 192.477 11.3421 191.727 11.6674C190.977 11.9928 190.322 12.4356 189.761 12.996C189.201 13.5473 188.758 14.2025 188.433 14.9617C188.107 15.7118 187.945 16.5117 187.945 17.3612C187.945 18.2108 188.107 19.0106 188.433 19.7607C188.758 20.5018 189.201 21.1526 189.761 21.7129C190.322 22.2732 190.977 22.7161 191.727 23.0415C192.477 23.3668 193.281 23.5295 194.14 23.5295C194.99 23.5295 195.789 23.3668 196.54 23.0415C197.299 22.7161 197.954 22.2732 198.505 21.7129C199.066 21.1526 199.508 20.5018 199.834 19.7607C200.159 19.0106 200.322 18.2108 200.322 17.3612Z" fill="black"/>
<path d="M69.9956 38.5635C68.8699 38.2399 68.0496 37.8434 67.5346 37.374C67.0242 36.9001 66.769 36.3167 66.769 35.624C66.769 34.8402 67.0812 34.193 67.7055 33.6826C68.3344 33.1676 69.1502 32.9102 70.1528 32.9102C70.8364 32.9102 71.4448 33.0423 71.978 33.3066C72.5158 33.571 72.9305 33.9355 73.2221 34.4004C73.5184 34.8652 73.6665 35.3734 73.6665 35.9248H72.3471C72.3471 35.3232 72.1557 34.8516 71.7729 34.5098C71.3901 34.1634 70.8501 33.9902 70.1528 33.9902C69.5057 33.9902 68.9998 34.1338 68.6352 34.4209C68.2752 34.7035 68.0952 35.0977 68.0952 35.6035C68.0952 36.0091 68.2661 36.3532 68.6079 36.6357C68.9542 36.9137 69.5398 37.1689 70.3647 37.4014C71.1941 37.6338 71.8413 37.8913 72.3061 38.1738C72.7755 38.4518 73.1219 38.7777 73.3452 39.1514C73.573 39.5251 73.687 39.9648 73.687 40.4707C73.687 41.2773 73.3725 41.9245 72.7436 42.4121C72.1147 42.8952 71.2739 43.1367 70.2212 43.1367C69.5376 43.1367 68.8995 43.0068 68.3071 42.7471C67.7147 42.4827 67.2566 42.1227 66.9331 41.667C66.6141 41.2113 66.4546 40.694 66.4546 40.1152H67.7739C67.7739 40.7168 67.9949 41.193 68.437 41.5439C68.8836 41.8903 69.4783 42.0635 70.2212 42.0635C70.9139 42.0635 71.4448 41.9222 71.8139 41.6396C72.1831 41.3571 72.3676 40.972 72.3676 40.4844C72.3676 39.9967 72.1967 39.6208 71.8549 39.3564C71.5132 39.0876 70.8934 38.8232 69.9956 38.5635ZM76.5512 43H75.2866V35.6035H76.5512V43ZM75.1841 33.6416C75.1841 33.4365 75.2456 33.2633 75.3686 33.1221C75.4962 32.9808 75.6831 32.9102 75.9292 32.9102C76.1753 32.9102 76.3621 32.9808 76.4897 33.1221C76.6173 33.2633 76.6811 33.4365 76.6811 33.6416C76.6811 33.8467 76.6173 34.0176 76.4897 34.1543C76.3621 34.291 76.1753 34.3594 75.9292 34.3594C75.6831 34.3594 75.4962 34.291 75.3686 34.1543C75.2456 34.0176 75.1841 33.8467 75.1841 33.6416ZM79.771 35.6035L79.8051 36.4238C80.3475 35.7858 81.0789 35.4668 81.9995 35.4668C83.034 35.4668 83.7381 35.8633 84.1118 36.6562C84.3579 36.3008 84.6769 36.0137 85.0688 35.7949C85.4653 35.5762 85.9324 35.4668 86.4702 35.4668C88.0926 35.4668 88.9174 36.3258 88.9448 38.0439V43H87.6801V38.1191C87.6801 37.5905 87.5594 37.1963 87.3178 36.9365C87.0763 36.6722 86.6707 36.54 86.101 36.54C85.6316 36.54 85.242 36.6813 84.9321 36.9639C84.6222 37.2419 84.4422 37.6178 84.3921 38.0918V43H83.1206V38.1533C83.1206 37.0778 82.5942 36.54 81.5415 36.54C80.712 36.54 80.1447 36.8932 79.8393 37.5996V43H78.5747V35.6035H79.771ZM97.1069 39.3838C97.1069 40.5094 96.8494 41.4163 96.3344 42.1045C95.8195 42.7926 95.1222 43.1367 94.2426 43.1367C93.3449 43.1367 92.6385 42.8519 92.1235 42.2822V45.8438H90.8589V35.6035H92.0141L92.0757 36.4238C92.5906 35.7858 93.3061 35.4668 94.2221 35.4668C95.1108 35.4668 95.8126 35.8018 96.3276 36.4717C96.8471 37.1416 97.1069 38.0736 97.1069 39.2676V39.3838ZM95.8423 39.2402C95.8423 38.4062 95.6645 37.7477 95.3091 37.2646C94.9536 36.7816 94.466 36.54 93.8462 36.54C93.0805 36.54 92.5063 36.8796 92.1235 37.5586V41.0928C92.5018 41.7673 93.0805 42.1045 93.8598 42.1045C94.466 42.1045 94.9467 41.8652 95.3022 41.3867C95.6622 40.9036 95.8423 40.1882 95.8423 39.2402ZM100.094 43H98.8296V32.5H100.094V43ZM105.194 43.1367C104.191 43.1367 103.375 42.8086 102.747 42.1523C102.118 41.4915 101.803 40.6097 101.803 39.5068V39.2744C101.803 38.5407 101.942 37.8867 102.22 37.3125C102.503 36.7337 102.895 36.2826 103.396 35.959C103.902 35.6309 104.449 35.4668 105.037 35.4668C105.998 35.4668 106.746 35.7835 107.279 36.417C107.812 37.0505 108.079 37.9574 108.079 39.1377V39.6641H103.068C103.086 40.3932 103.298 40.9834 103.704 41.4346C104.114 41.8812 104.633 42.1045 105.262 42.1045C105.709 42.1045 106.087 42.0133 106.397 41.8311C106.707 41.6488 106.978 41.4072 107.21 41.1064L107.983 41.708C107.363 42.6605 106.433 43.1367 105.194 43.1367ZM105.037 36.5059C104.526 36.5059 104.098 36.6927 103.751 37.0664C103.405 37.4355 103.191 37.9551 103.109 38.625H106.814V38.5293C106.777 37.8867 106.604 37.39 106.294 37.0391C105.985 36.6836 105.565 36.5059 105.037 36.5059ZM113.643 43V36.5811H112.474V35.6035H113.643V34.8447C113.643 34.0518 113.855 33.4388 114.279 33.0059C114.703 32.5729 115.302 32.3564 116.077 32.3564C116.368 32.3564 116.658 32.3952 116.945 32.4727L116.876 33.498C116.662 33.457 116.434 33.4365 116.193 33.4365C115.783 33.4365 115.466 33.5573 115.243 33.7988C115.019 34.0358 114.908 34.3776 114.908 34.8242V35.6035H116.487V36.5811H114.908V43H113.643ZM121.463 36.7383C121.272 36.7064 121.065 36.6904 120.841 36.6904C120.012 36.6904 119.449 37.0436 119.153 37.75V43H117.888V35.6035H119.119L119.139 36.458C119.554 35.7972 120.142 35.4668 120.903 35.4668C121.149 35.4668 121.336 35.4987 121.463 35.5625V36.7383ZM126.925 43C126.852 42.8542 126.793 42.5944 126.748 42.2207C126.16 42.8314 125.458 43.1367 124.642 43.1367C123.913 43.1367 123.314 42.9316 122.844 42.5215C122.379 42.1068 122.147 41.5827 122.147 40.9492C122.147 40.179 122.439 39.582 123.022 39.1582C123.61 38.7298 124.435 38.5156 125.497 38.5156H126.727V37.9346C126.727 37.4925 126.595 37.1416 126.331 36.8818C126.066 36.6175 125.677 36.4854 125.162 36.4854C124.71 36.4854 124.332 36.5993 124.027 36.8271C123.721 37.055 123.569 37.3307 123.569 37.6543H122.297C122.297 37.2852 122.427 36.9297 122.687 36.5879C122.951 36.2415 123.307 35.9681 123.753 35.7676C124.205 35.5671 124.699 35.4668 125.237 35.4668C126.089 35.4668 126.757 35.681 127.24 36.1094C127.723 36.5332 127.973 37.1188 127.992 37.8662V41.2705C127.992 41.9495 128.078 42.4896 128.251 42.8906V43H126.925ZM124.827 42.0361C125.223 42.0361 125.599 41.9336 125.955 41.7285C126.31 41.5234 126.568 41.2568 126.727 40.9287V39.4111H125.736C124.186 39.4111 123.412 39.8646 123.412 40.7715C123.412 41.168 123.544 41.4779 123.808 41.7012C124.072 41.9245 124.412 42.0361 124.827 42.0361ZM131.164 35.6035L131.198 36.4238C131.74 35.7858 132.471 35.4668 133.392 35.4668C134.427 35.4668 135.131 35.8633 135.504 36.6562C135.75 36.3008 136.069 36.0137 136.461 35.7949C136.858 35.5762 137.325 35.4668 137.863 35.4668C139.485 35.4668 140.31 36.3258 140.337 38.0439V43H139.073V38.1191C139.073 37.5905 138.952 37.1963 138.71 36.9365C138.469 36.6722 138.063 36.54 137.494 36.54C137.024 36.54 136.635 36.6813 136.325 36.9639C136.015 37.2419 135.835 37.6178 135.785 38.0918V43H134.513V38.1533C134.513 37.0778 133.987 36.54 132.934 36.54C132.105 36.54 131.537 36.8932 131.232 37.5996V43H129.967V35.6035H131.164ZM145.321 43.1367C144.318 43.1367 143.502 42.8086 142.874 42.1523C142.245 41.4915 141.93 40.6097 141.93 39.5068V39.2744C141.93 38.5407 142.069 37.8867 142.347 37.3125C142.63 36.7337 143.022 36.2826 143.523 35.959C144.029 35.6309 144.576 35.4668 145.164 35.4668C146.125 35.4668 146.873 35.7835 147.406 36.417C147.939 37.0505 148.206 37.9574 148.206 39.1377V39.6641H143.195C143.213 40.3932 143.425 40.9834 143.831 41.4346C144.241 41.8812 144.76 42.1045 145.389 42.1045C145.836 42.1045 146.214 42.0133 146.524 41.8311C146.834 41.6488 147.105 41.4072 147.337 41.1064L148.11 41.708C147.49 42.6605 146.56 43.1367 145.321 43.1367ZM145.164 36.5059C144.653 36.5059 144.225 36.6927 143.878 37.0664C143.532 37.4355 143.318 37.9551 143.236 38.625H146.941V38.5293C146.904 37.8867 146.731 37.39 146.421 37.0391C146.111 36.6836 145.692 36.5059 145.164 36.5059ZM156.224 41.2568L157.646 35.6035H158.911L156.757 43H155.732L153.934 37.3945L152.184 43H151.159L149.012 35.6035H150.27L151.726 41.1406L153.449 35.6035H154.467L156.224 41.2568ZM159.868 39.2334C159.868 38.5088 160.009 37.8571 160.291 37.2783C160.579 36.6995 160.975 36.2529 161.481 35.9385C161.991 35.624 162.572 35.4668 163.224 35.4668C164.231 35.4668 165.045 35.8154 165.665 36.5127C166.289 37.21 166.601 38.1374 166.601 39.2949V39.3838C166.601 40.1038 166.462 40.751 166.184 41.3252C165.911 41.8949 165.516 42.3392 165.001 42.6582C164.491 42.9772 163.903 43.1367 163.238 43.1367C162.235 43.1367 161.422 42.7881 160.797 42.0908C160.178 41.3936 159.868 40.4707 159.868 39.3223V39.2334ZM161.139 39.3838C161.139 40.2041 161.328 40.8626 161.707 41.3594C162.089 41.8561 162.6 42.1045 163.238 42.1045C163.88 42.1045 164.391 41.8538 164.769 41.3525C165.147 40.8467 165.336 40.1403 165.336 39.2334C165.336 38.4222 165.143 37.766 164.755 37.2646C164.373 36.7588 163.862 36.5059 163.224 36.5059C162.6 36.5059 162.096 36.7542 161.713 37.251C161.331 37.7477 161.139 38.4587 161.139 39.3838ZM171.762 36.7383C171.571 36.7064 171.363 36.6904 171.14 36.6904C170.311 36.6904 169.748 37.0436 169.452 37.75V43H168.187V35.6035H169.417L169.438 36.458C169.853 35.7972 170.441 35.4668 171.202 35.4668C171.448 35.4668 171.635 35.4987 171.762 35.5625V36.7383ZM174.996 39.5752L174.203 40.4023V43H172.938V32.5H174.203V38.8506L174.879 38.0371L177.183 35.6035H178.721L175.843 38.6934L179.056 43H177.573L174.996 39.5752Z" fill="#585858"/>
</svg>
