<svg width="16" height="16" viewBox="0 0 16 16" fill="none" xmlns="http://www.w3.org/2000/svg">
<path fill-rule="evenodd" clip-rule="evenodd" d="M12.3048 8C12.3048 10.4853 10.2901 12.5 7.80481 12.5C5.31953 12.5 3.30481 10.4853 3.30481 8C3.30481 5.51472 5.31953 3.5 7.80481 3.5C10.2901 3.5 12.3048 5.51472 12.3048 8ZM7.8136 11.5C7.53746 11.5 7.3136 11.2761 7.3136 11V8C7.3136 7.72386 7.53746 7.5 7.8136 7.5C8.08974 7.5 8.3136 7.72386 8.3136 8V11C8.3136 11.2761 8.08974 11.5 7.8136 11.5ZM7.8136 6.63403C8.15878 6.63403 8.4386 6.35421 8.4386 6.00903C8.4386 5.66386 8.15878 5.38403 7.8136 5.38403C7.46842 5.38403 7.1886 5.66386 7.1886 6.00903C7.1886 6.35421 7.46842 6.63403 7.8136 6.63403Z" fill="#D43D51"/>
</svg>
