<svg width="30" height="31" viewBox="0 0 30 31" fill="none" xmlns="http://www.w3.org/2000/svg">
<path fill-rule="evenodd" clip-rule="evenodd" d="M15 26.0547C21.0751 26.0547 26 21.1298 26 15.0547C26 8.97956 21.0751 4.05469 15 4.05469C8.92487 4.05469 4 8.97956 4 15.0547C4 21.1298 8.92487 26.0547 15 26.0547ZM15 24.3047C20.1086 24.3047 24.25 20.1633 24.25 15.0547C24.25 9.94605 20.1086 5.80469 15 5.80469C9.89137 5.80469 5.75 9.94605 5.75 15.0547C5.75 20.1633 9.89137 24.3047 15 24.3047Z" fill="#ED5C70"/>
<path fill-rule="evenodd" clip-rule="evenodd" d="M15 21.1704C14.4477 21.1704 14 20.7227 14 20.1704L14 14.1704C14 13.6181 14.4477 13.1704 15 13.1704C15.5523 13.1704 16 13.6181 16 14.1704L16 20.1704C16 20.7227 15.5523 21.1704 15 21.1704Z" fill="#ED5C70"/>
<circle cx="15" cy="10.1885" r="1.25" fill="#ED5C70"/>
</svg>
