<svg width="30" height="31" viewBox="0 0 30 31" fill="none" xmlns="http://www.w3.org/2000/svg">
<path fill-rule="evenodd" clip-rule="evenodd" d="M15 26.5137C21.0751 26.5137 26 21.5888 26 15.5137C26 9.43854 21.0751 4.51367 15 4.51367C8.92487 4.51367 4 9.43854 4 15.5137C4 21.5888 8.92487 26.5137 15 26.5137ZM15 24.7637C20.1086 24.7637 24.25 20.6223 24.25 15.5137C24.25 10.405 20.1086 6.26367 15 6.26367C9.89137 6.26367 5.75 10.405 5.75 15.5137C5.75 20.6223 9.89137 24.7637 15 24.7637Z" fill="#272829"/>
<path fill-rule="evenodd" clip-rule="evenodd" d="M15 21.6296C14.4477 21.6296 14 21.1819 14 20.6296L14 14.6296C14 14.0774 14.4477 13.6296 15 13.6296C15.5523 13.6296 16 14.0774 16 14.6296L16 20.6296C16 21.1819 15.5523 21.6296 15 21.6296Z" fill="#272829"/>
<circle cx="15" cy="10.6477" r="1.25" fill="#272829"/>
</svg>
