<svg width="30" height="31" viewBox="0 0 30 31" fill="none" xmlns="http://www.w3.org/2000/svg">
<path fill-rule="evenodd" clip-rule="evenodd" d="M15 26.2224C21.0751 26.2224 26 21.2975 26 15.2224C26 9.14728 21.0751 4.22241 15 4.22241C8.92487 4.22241 4 9.14728 4 15.2224C4 21.2975 8.92487 26.2224 15 26.2224ZM15 24.4724C20.1086 24.4724 24.25 20.331 24.25 15.2224C24.25 10.1138 20.1086 5.97241 15 5.97241C9.89137 5.97241 5.75 10.1138 5.75 15.2224C5.75 20.331 9.89137 24.4724 15 24.4724Z" fill="white"/>
<path fill-rule="evenodd" clip-rule="evenodd" d="M15 21.3384C14.4477 21.3384 14 20.8907 14 20.3384L14 14.3384C14 13.7861 14.4477 13.3384 15 13.3384C15.5523 13.3384 16 13.7861 16 14.3384L16 20.3384C16 20.8907 15.5523 21.3384 15 21.3384Z" fill="white"/>
<circle cx="15" cy="10.3564" r="1.25" fill="white"/>
</svg>
