<svg width="30" height="31" viewBox="0 0 30 31" fill="none" xmlns="http://www.w3.org/2000/svg">
<path fill-rule="evenodd" clip-rule="evenodd" d="M9.54545 9.44269C8.03922 9.44269 6.81818 10.6637 6.81818 12.17V21.2609C6.81818 22.7671 8.03922 23.9881 9.54545 23.9881H20.4545C21.9608 23.9881 23.1818 22.7671 23.1818 21.2609V12.17C23.1818 10.6637 21.9608 9.44269 20.4545 9.44269H9.54545ZM5 12.17C5 9.65958 7.03507 7.62451 9.54545 7.62451H20.4545C22.9649 7.62451 25 9.65958 25 12.17V21.2609C25 23.7713 22.9649 25.8063 20.4545 25.8063H9.54545C7.03507 25.8063 5 23.7713 5 21.2609V12.17Z" fill="#717375"/>
<path fill-rule="evenodd" clip-rule="evenodd" d="M11.3636 5.54126C11.8657 5.54126 12.2727 5.94827 12.2727 6.45035V10.0867C12.2727 10.5888 11.8657 10.9958 11.3636 10.9958C10.8616 10.9958 10.4545 10.5888 10.4545 10.0867V6.45035C10.4545 5.94827 10.8616 5.54126 11.3636 5.54126ZM18.6364 5.54126C19.1384 5.54126 19.5455 5.94827 19.5455 6.45035V10.0867C19.5455 10.5888 19.1384 10.9958 18.6364 10.9958C18.1343 10.9958 17.7273 10.5888 17.7273 10.0867V6.45035C17.7273 5.94827 18.1343 5.54126 18.6364 5.54126ZM5 13.7231C5 13.221 5.40701 12.814 5.90909 12.814H24.0909C24.593 12.814 25 13.221 25 13.7231C25 14.2252 24.593 14.6322 24.0909 14.6322H5.90909C5.40701 14.6322 5 14.2252 5 13.7231Z" fill="#717375"/>
</svg>
