<svg width="16" height="16" viewBox="0 0 16 16" fill="none" xmlns="http://www.w3.org/2000/svg">
<path d="M3.04705 4.96967C2.75416 4.67678 2.27929 4.67678 1.98639 4.96967C1.6935 5.26256 1.6935 5.73744 1.98639 6.03033L3.04705 4.96967ZM13.0471 6.03033C13.3399 5.73744 13.3399 5.26256 13.0471 4.96967C12.7542 4.67678 12.2793 4.67678 11.9864 4.96967L13.0471 6.03033ZM1.98639 6.03033L6.27929 10.3232L7.33995 9.26256L3.04705 4.96967L1.98639 6.03033ZM8.75416 10.3232L13.0471 6.03033L11.9864 4.96967L7.6935 9.26256L8.75416 10.3232ZM6.27929 10.3232C6.96271 11.0066 8.07074 11.0066 8.75416 10.3232L7.6935 9.26256C7.59587 9.36019 7.43758 9.36019 7.33995 9.26256L6.27929 10.3232Z" fill="#717375"/>
</svg>
