<svg width="30" height="31" viewBox="0 0 30 31" fill="none" xmlns="http://www.w3.org/2000/svg">
<path d="M20.7514 5.54126C21.3216 5.54119 21.8705 5.75758 22.2873 6.14669C22.7041 6.5358 22.9576 7.06862 22.9966 7.63747L23.0016 7.79148V23.291C23.0017 23.8612 22.7853 24.4102 22.3962 24.8269C22.0071 25.2437 21.4742 25.4972 20.9054 25.5363L20.7514 25.5413H9.25023C8.68004 25.5413 8.13109 25.3249 7.71432 24.9358C7.29754 24.5467 7.04403 24.0139 7.005 23.4451L7 23.291V7.79148C6.99993 7.2213 7.21632 6.67235 7.60543 6.25558C7.99454 5.8388 8.52736 5.58529 9.09621 5.54626L9.25023 5.54126H20.7514ZM20.7514 7.04141H9.25023C9.06897 7.04142 8.89385 7.10706 8.75725 7.2262C8.62064 7.34533 8.5318 7.5099 8.50715 7.68947L8.50015 7.79148V23.291C8.50015 23.6711 8.78218 23.9851 9.14822 24.0341L9.25023 24.0411H20.7514C20.9326 24.0411 21.1078 23.9755 21.2444 23.8563C21.381 23.7372 21.4698 23.5726 21.4945 23.393L21.5015 23.291V7.79148C21.5014 7.61023 21.4358 7.43511 21.3167 7.2985C21.1975 7.1619 21.033 7.07306 20.8534 7.04841L20.7514 7.04141Z" fill="#717375"/>
<path fill-rule="evenodd" clip-rule="evenodd" d="M15.8068 22.5343C15.6578 22.5106 15.5243 22.4287 15.4357 22.3067C15.3471 22.1846 15.3106 22.0324 15.3342 21.8834L15.413 21.3819H14.2903L14.1826 22.0609C14.1552 22.2064 14.0723 22.3355 13.9513 22.4208C13.8303 22.5062 13.6808 22.541 13.5346 22.5179C13.3883 22.4948 13.2569 22.4156 13.1681 22.2971C13.0793 22.1786 13.0402 22.0302 13.059 21.8834L13.1379 21.3819H12.569C12.4181 21.3819 12.2733 21.322 12.1666 21.2153C12.0599 21.1086 12 20.9639 12 20.813C12 20.6621 12.0599 20.5173 12.1666 20.4106C12.2733 20.3039 12.4181 20.244 12.569 20.244H13.3185L13.4983 19.1061H12.9475C12.7966 19.1061 12.6519 19.0461 12.5452 18.9394C12.4385 18.8327 12.3786 18.688 12.3786 18.5371C12.3786 18.3862 12.4385 18.2415 12.5452 18.1348C12.6519 18.0281 12.7966 17.9681 12.9475 17.9681H13.6781L13.8298 17.0123C13.8591 16.8687 13.9428 16.7419 14.0632 16.6585C14.1837 16.575 14.3317 16.5413 14.4765 16.5642C14.6212 16.5872 14.7515 16.6652 14.8402 16.7818C14.9289 16.8985 14.9691 17.0449 14.9526 17.1905L14.8304 17.9681H15.9532L16.1049 17.0123C16.1286 16.8632 16.2105 16.7296 16.3326 16.6409C16.4547 16.5522 16.6071 16.5156 16.7562 16.5393C16.9053 16.5629 17.0389 16.6448 17.1276 16.7669C17.2163 16.8891 17.2528 17.0414 17.2292 17.1905L17.1063 17.9681H17.4993C17.6502 17.9681 17.7949 18.0281 17.9016 18.1348C18.0083 18.2415 18.0682 18.3862 18.0682 18.5371C18.0682 18.688 18.0083 18.8327 17.9016 18.9394C17.7949 19.0461 17.6502 19.1061 17.4993 19.1061H16.9257L16.7459 20.244H17.12C17.2709 20.244 17.4156 20.3039 17.5223 20.4106C17.629 20.5173 17.6889 20.6621 17.6889 20.813C17.6889 20.9639 17.629 21.1086 17.5223 21.2153C17.4156 21.322 17.2709 21.3819 17.12 21.3819H16.5654L16.4577 22.0609C16.446 22.1347 16.42 22.2055 16.3809 22.2693C16.3419 22.333 16.2907 22.3885 16.2303 22.4324C16.1699 22.4764 16.1013 22.508 16.0287 22.5255C15.956 22.543 15.8806 22.546 15.8068 22.5343ZM14.6488 19.1061L14.469 20.244H15.5917L15.7723 19.1061H14.6488Z" fill="#717375"/>
<path fill-rule="evenodd" clip-rule="evenodd" d="M15.6978 8.84131L15.6977 8.84126H15.068L12.9999 14.2668H13L15.0681 8.84131H15.2246H15.5414H15.6978ZM17.0356 14.2668L16.5189 12.8471H16.5188L17.0355 14.2668H17.0356ZM14.4636 12.2584H16.3046L15.3831 9.72682L15.3831 9.72698L16.3044 12.2583H14.4636L14.4636 12.2584ZM14.8916 11.9583L15.3833 10.6047L15.876 11.9583H14.8916ZM12.5645 14.5668L14.8613 8.54126H15.9042L17.2114 11.9583H17.2423V12.0392L18.2093 14.5668H16.8254L16.3087 13.1471H14.4598L13.9442 14.5668H12.5645Z" fill="#717375"/>
</svg>
