<svg width="30" height="31" viewBox="0 0 30 31" fill="none" xmlns="http://www.w3.org/2000/svg">
<path d="M11.5055 19.5467C11.1076 19.5467 10.726 19.7047 10.4447 19.986C10.1634 20.2674 10.0053 20.6489 10.0053 21.0468C10.0053 21.4447 10.1634 21.8262 10.4447 22.1076C10.726 22.3889 11.1076 22.547 11.5055 22.547H18.5062C18.904 22.547 19.2856 22.3889 19.5669 22.1076C19.8482 21.8262 20.0063 21.4447 20.0063 21.0468C20.0063 20.6489 19.8482 20.2674 19.5669 19.986C19.2856 19.7047 18.904 19.5467 18.5062 19.5467H11.5055ZM22.9966 7.63747C22.9576 7.06862 22.7041 6.5358 22.2873 6.14669C21.8705 5.75758 21.3216 5.54119 20.7514 5.54126H9.25023L9.09621 5.54626C8.52736 5.58529 7.99454 5.8388 7.60543 6.25558C7.21632 6.67235 6.99993 7.2213 7 7.79148V23.291L7.005 23.4451C7.04403 24.0139 7.29754 24.5467 7.71432 24.9358C8.13109 25.3249 8.68004 25.5413 9.25023 25.5413H20.7514L20.9054 25.5363C21.4742 25.4972 22.0071 25.2437 22.3962 24.8269C22.7853 24.4102 23.0017 23.8612 23.0016 23.291V7.79148L22.9966 7.63747V7.63747ZM9.25023 7.04141H20.7514L20.8534 7.04841C21.033 7.07306 21.1975 7.1619 21.3167 7.2985C21.4358 7.43511 21.5014 7.61023 21.5015 7.79148V23.291L21.4945 23.393C21.4698 23.5726 21.381 23.7372 21.2444 23.8563C21.1078 23.9755 20.9326 24.0411 20.7514 24.0411H9.25023L9.14822 24.0341C8.96864 24.0095 8.80407 23.9206 8.68494 23.784C8.5658 23.6474 8.50016 23.4723 8.50015 23.291V7.79148L8.50715 7.68947C8.5318 7.5099 8.62064 7.34533 8.75725 7.2262C8.89385 7.10706 9.06897 7.04142 9.25023 7.04141V7.04141Z" fill="#717375"/>
</svg>
