<svg width="30" height="30" viewBox="0 0 30 30" fill="none" xmlns="http://www.w3.org/2000/svg">
<path d="M5.53033 9.46967C5.23744 9.17678 4.76256 9.17678 4.46967 9.46967C4.17678 9.76256 4.17678 10.2374 4.46967 10.5303L5.53033 9.46967ZM25.5303 10.5303C25.8232 10.2374 25.8232 9.76256 25.5303 9.46967C25.2374 9.17678 24.7626 9.17678 24.4697 9.46967L25.5303 10.5303ZM4.46967 10.5303L13.7626 19.8232L14.8232 18.7626L5.53033 9.46967L4.46967 10.5303ZM16.2374 19.8232L25.5303 10.5303L24.4697 9.46967L15.1768 18.7626L16.2374 19.8232ZM13.7626 19.8232C14.446 20.5066 15.554 20.5066 16.2374 19.8232L15.1768 18.7626C15.0791 18.8602 14.9209 18.8602 14.8232 18.7626L13.7626 19.8232Z" fill="#717375"/>
</svg>
