<svg width="30" height="30" viewBox="0 0 30 30" fill="none" xmlns="http://www.w3.org/2000/svg">
<path fill-rule="evenodd" clip-rule="evenodd" d="M14 18.9687L14 7C14 6.44772 14.4477 6 15 6C15.5523 6 16 6.44772 16 7L16 18.9688L14 18.9687Z" fill="#717375"/>
<path fill-rule="evenodd" clip-rule="evenodd" d="M9.35539 13.7383C9.74592 13.3478 10.3791 13.3478 10.7696 13.7383L15.0312 18L19.2929 13.7383C19.6834 13.3478 20.3166 13.3478 20.7071 13.7383C21.0976 14.1289 21.0976 14.762 20.7071 15.1525L16.4455 19.4142C15.6644 20.1952 14.3981 20.1952 13.617 19.4142L9.35539 15.1525C8.96487 14.762 8.96487 14.1289 9.35539 13.7383Z" fill="#717375"/>
<rect x="8" y="22" width="14" height="2" rx="1" fill="#717375"/>
</svg>
