<svg width="30" height="31" viewBox="0 0 30 31" fill="none" xmlns="http://www.w3.org/2000/svg">
<path fill-rule="evenodd" clip-rule="evenodd" d="M7.48933 15.1702C7.55298 15.2793 7.62884 15.4048 7.71696 15.5431C8.0508 16.0669 8.55403 16.7648 9.22845 17.4597C10.581 18.8532 12.5535 20.1702 15.2007 20.1702C17.8479 20.1702 19.8204 18.8532 21.1729 17.4597C21.8473 16.7648 22.3506 16.0669 22.6844 15.5431C22.7725 15.4048 22.8484 15.2793 22.912 15.1702C22.8484 15.0611 22.7725 14.9356 22.6844 14.7973C22.3506 14.2735 21.8473 13.5756 21.1729 12.8807C19.8204 11.4872 17.8479 10.1702 15.2007 10.1702C12.5535 10.1702 10.581 11.4872 9.22845 12.8807C8.55403 13.5756 8.0508 14.2735 7.71696 14.7973C7.62884 14.9356 7.55298 15.0611 7.48933 15.1702ZM24.1293 15.1702C25.0987 14.714 25.0985 14.7136 25.0983 14.7131L25.0967 14.7098L25.0936 14.7033L25.0843 14.6839C25.0766 14.6681 25.066 14.6466 25.0525 14.6199C25.0255 14.5664 24.9869 14.4917 24.9366 14.3988C24.836 14.2131 24.6879 13.954 24.4915 13.6457C24.0999 13.0312 23.5094 12.2113 22.7106 11.3883C21.1167 9.74609 18.6249 8.02734 15.2007 8.02734C11.7765 8.02734 9.28465 9.74609 7.69078 11.3883C6.89198 12.2113 6.30146 13.0312 5.90985 13.6457C5.71344 13.954 5.5654 14.2131 5.46478 14.3988C5.41443 14.4917 5.37583 14.5664 5.34887 14.6199C5.33539 14.6466 5.32481 14.6681 5.31711 14.6839L5.30773 14.7033L5.30466 14.7098L5.30353 14.7122L5.30306 14.7131C5.30286 14.7136 5.30266 14.714 6.27211 15.1702L5.30266 14.714C5.16669 15.0029 5.16669 15.3375 5.30266 15.6264L6.27211 15.1702C5.30266 15.6264 5.30286 15.6268 5.30306 15.6273L5.30353 15.6282L5.30466 15.6306L5.30773 15.6371L5.31711 15.6565C5.32481 15.6723 5.33539 15.6938 5.34887 15.7205C5.37583 15.774 5.41443 15.8487 5.46478 15.9416C5.5654 16.1273 5.71344 16.3864 5.90985 16.6947C6.30146 17.3092 6.89198 18.1291 7.69078 18.9521C9.28465 20.5943 11.7765 22.3131 15.2007 22.3131C18.6249 22.3131 21.1167 20.5943 22.7106 18.9521C23.5094 18.1291 24.0999 17.3092 24.4915 16.6947C24.6879 16.3864 24.836 16.1273 24.9366 15.9416C24.9869 15.8487 25.0255 15.774 25.0525 15.7205C25.066 15.6938 25.0766 15.6723 25.0843 15.6565L25.0936 15.6371L25.0967 15.6306L25.0983 15.6273C25.0985 15.6268 25.0987 15.6264 24.1293 15.1702ZM24.1293 15.1702L25.0987 15.6264C25.2347 15.3375 25.2347 15.0029 25.0987 14.714L24.1293 15.1702ZM7.24061 15.6284C7.24042 15.6288 7.24046 15.6287 7.24061 15.6284V15.6284Z" fill="#717375"/>
<path d="M15.2012 16.9562C16.1875 16.9562 16.987 16.1567 16.987 15.1705C16.987 14.1843 16.1875 13.3848 15.2012 13.3848C14.215 13.3848 13.4155 14.1843 13.4155 15.1705C13.4155 16.1567 14.215 16.9562 15.2012 16.9562Z" fill="#717375"/>
<path fill-rule="evenodd" clip-rule="evenodd" d="M15.2004 14.4558C14.8059 14.4558 14.4861 14.7756 14.4861 15.1701C14.4861 15.5646 14.8059 15.8844 15.2004 15.8844C15.5949 15.8844 15.9147 15.5646 15.9147 15.1701C15.9147 14.7756 15.5949 14.4558 15.2004 14.4558ZM12.3433 15.1701C12.3433 13.5922 13.6224 12.313 15.2004 12.313C16.7784 12.313 18.0575 13.5922 18.0575 15.1701C18.0575 16.7481 16.7784 18.0273 15.2004 18.0273C13.6224 18.0273 12.3433 16.7481 12.3433 15.1701Z" fill="#717375"/>
</svg>
