<svg width="30" height="31" viewBox="0 0 30 31" fill="none" xmlns="http://www.w3.org/2000/svg">
<path fill-rule="evenodd" clip-rule="evenodd" d="M15.0108 8.80432C15.0945 8.21853 15.6372 7.8115 16.223 7.89518C19.0654 8.30124 21.2376 10.0129 22.6567 11.5266C23.3742 12.2919 23.9226 13.0313 24.2926 13.5803C24.4781 13.8556 24.62 14.0849 24.7172 14.2483C24.7658 14.3301 24.8032 14.3955 24.8294 14.4421C24.8425 14.4654 24.8528 14.484 24.8602 14.4976L24.8693 14.5142L24.8722 14.5196L24.8733 14.5216C24.8734 14.522 24.874 14.5231 23.9287 15.0273C24.9235 15.4252 24.9234 15.4254 24.9233 15.4256L24.9227 15.4272L24.9216 15.4298L24.9187 15.4369L24.9097 15.4589C24.9022 15.4769 24.8919 15.5014 24.8786 15.5321C24.8521 15.5934 24.814 15.679 24.7642 15.7849C24.6648 15.9962 24.5179 16.2896 24.3232 16.6303C23.9371 17.3061 23.3469 18.1958 22.5434 18.9992C22.125 19.4176 21.4466 19.4176 21.0282 18.9992C20.6098 18.5808 20.6098 17.9024 21.0282 17.484C21.6533 16.8589 22.1345 16.1414 22.4627 15.5672C22.5646 15.3888 22.6502 15.227 22.7194 15.0897C22.6609 14.9972 22.5929 14.8926 22.5156 14.7779C22.1937 14.3001 21.7153 13.6555 21.0934 12.9922C19.834 11.6488 18.0776 10.3247 15.92 10.0165C15.3342 9.93283 14.9271 9.39011 15.0108 8.80432ZM23.9287 15.0273L24.9233 15.4256C25.0406 15.1324 25.0227 14.8018 24.874 14.5231L23.9287 15.0273ZM11.2759 9.83318C11.5804 10.3406 11.4158 10.9987 10.9084 11.3032C9.2577 12.2936 8.29562 13.3484 7.75276 14.1239C7.5082 14.4732 7.34671 14.7689 7.24533 14.9803C7.34523 15.1655 7.48412 15.4073 7.66332 15.6847C8.09386 16.351 8.74451 17.2027 9.6289 17.9664C11.358 19.4598 14.0075 20.6574 17.8755 19.368C18.4369 19.1809 19.0437 19.4843 19.2308 20.0457C19.4179 20.607 19.1145 21.2138 18.5532 21.4009C13.8497 22.9687 10.4278 21.4878 8.22828 19.5882C7.14837 18.6556 6.37045 17.6322 5.86349 16.8476C5.60888 16.4536 5.41947 16.1149 5.29193 15.8707C5.22809 15.7485 5.17953 15.6495 5.14586 15.5786C5.12902 15.5432 5.11588 15.5147 5.1064 15.4938L5.09491 15.4683L5.09121 15.4599L5.08986 15.4568L5.08932 15.4556C5.08908 15.455 5.08885 15.4545 6.07143 15.0273C5.04122 14.733 5.04139 14.7324 5.04155 14.7318L5.04189 14.7306L5.04263 14.7281L5.04433 14.7223L5.04864 14.7079C5.05192 14.6971 5.05605 14.6839 5.06108 14.6684C5.07115 14.6373 5.08485 14.597 5.10274 14.548C5.13852 14.4501 5.19108 14.3177 5.26484 14.1568C5.4124 13.8348 5.6448 13.3985 5.99726 12.895C6.70441 11.8848 7.88519 10.6181 9.80592 9.46568C10.3133 9.16123 10.9715 9.32577 11.2759 9.83318ZM6.07143 15.0273L5.04123 14.733C4.973 14.9717 4.98984 15.2268 5.08885 15.4545L6.07143 15.0273ZM7.0532 14.5982C7.05306 14.5979 7.05291 14.5976 7.0532 14.5982Z" fill="#717375"/>
<path d="M15.8936 16.5744C15.5067 16.7977 15.0501 16.8679 14.614 16.7711C14.1779 16.6743 13.7939 16.4176 13.5378 16.0516C13.2814 15.6857 13.1714 15.237 13.2296 14.794C13.2878 14.351 13.5099 13.9459 13.8521 13.6587L15.0007 15.0273L15.8936 16.5744Z" fill="#717375" stroke="#717375" stroke-width="2.34375" stroke-linecap="round" stroke-linejoin="round"/>
<path fill-rule="evenodd" clip-rule="evenodd" d="M8.32624 5.21289C8.81556 4.88015 9.48197 5.00708 9.81471 5.4964L21.9576 23.3536C22.2904 23.843 22.1634 24.5094 21.6741 24.8421C21.1848 25.1749 20.5184 25.0479 20.1856 24.5586L8.04272 6.70136C7.70998 6.21204 7.83692 5.54562 8.32624 5.21289Z" fill="#717375"/>
</svg>
