<svg width="30" height="31" viewBox="0 0 30 31" fill="none" xmlns="http://www.w3.org/2000/svg">
<path fill-rule="evenodd" clip-rule="evenodd" d="M12.1429 7.11068C11.6244 7.11068 11.1351 7.30898 10.7807 7.64961C10.4276 7.98888 10.2374 8.43999 10.2374 8.90119V11.6348H19.9426V8.90119C19.9426 8.43999 19.7524 7.98888 19.3993 7.64961C19.0449 7.30898 18.5556 7.11068 18.0371 7.11068H12.1429ZM8.15405 8.90119V11.6352C6.55615 11.6628 5.20093 12.926 5.20093 14.5646V22.117C5.20093 23.7738 6.5864 25.0468 8.20735 25.0468H21.9607C23.5816 25.0468 24.9671 23.7738 24.9671 22.117V14.5646C24.9671 12.9301 23.6186 11.6691 22.0259 11.6355V8.90119C22.0259 7.86011 21.5952 6.87046 20.8429 6.14746C20.0919 5.42582 19.082 5.02734 18.0371 5.02734H12.1429C11.098 5.02734 10.0881 5.42582 9.33714 6.14746C8.58479 6.87046 8.15405 7.86011 8.15405 8.90119ZM8.20735 13.7181H9.14974C9.16498 13.7188 9.18031 13.7191 9.19572 13.7191H20.9843C20.9997 13.7191 21.015 13.7188 21.0303 13.7181H21.9607C22.5099 13.7181 22.8838 14.1357 22.8838 14.5646V22.117C22.8838 22.5458 22.5099 22.9635 21.9607 22.9635H8.20735C7.65809 22.9635 7.28426 22.5458 7.28426 22.117V14.5646C7.28426 14.1357 7.65809 13.7181 8.20735 13.7181ZM15.0632 19.5612C15.5601 19.5612 15.9628 19.1585 15.9628 18.6617C15.9628 18.1649 15.5601 17.7621 15.0632 17.7621C14.5664 17.7621 14.1637 18.1649 14.1637 18.6617C14.1637 19.1585 14.5664 19.5612 15.0632 19.5612Z" fill="#717375"/>
</svg>
