<svg width="15" height="15" viewBox="0 0 15 15" fill="none" xmlns="http://www.w3.org/2000/svg">
<path d="M10.25 2.85355C10.4452 2.65829 10.4452 2.34171 10.25 2.14645C10.0547 1.95118 9.73812 1.95118 9.54286 2.14645L10.25 2.85355ZM5.24996 7.14645L5.60352 7.5H5.60352L5.24996 7.14645ZM5.24996 7.85355L4.89641 8.20711H4.89641L5.24996 7.85355ZM9.54286 12.8536C9.73812 13.0488 10.0547 13.0488 10.25 12.8536C10.4452 12.6583 10.4452 12.3417 10.25 12.1464L9.54286 12.8536ZM9.54286 2.14645L4.89641 6.79289L5.60352 7.5L10.25 2.85355L9.54286 2.14645ZM4.89641 8.20711L9.54286 12.8536L10.25 12.1464L5.60352 7.5L4.89641 8.20711ZM4.89641 6.79289C4.50588 7.18342 4.50589 7.81658 4.89641 8.20711L5.60352 7.5L5.60352 7.5L4.89641 6.79289Z" fill="#0F0F0F"/>
</svg>
