<svg width="31" height="30" viewBox="0 0 31 30" fill="none" xmlns="http://www.w3.org/2000/svg">
<path d="M15.6951 13.9C13.4251 13.31 12.6951 12.7 12.6951 11.75C12.6951 10.66 13.7051 9.9 15.3951 9.9C17.1751 9.9 17.8351 10.75 17.8951 12H20.1051C20.0351 10.28 18.9851 8.7 16.8951 8.19V6H13.8951V8.16C11.9551 8.58 10.3951 9.84 10.3951 11.77C10.3951 14.08 12.3051 15.23 15.0951 15.9C17.5951 16.5 18.0951 17.38 18.0951 18.31C18.0951 19 17.6051 20.1 15.3951 20.1C13.3351 20.1 12.5251 19.18 12.4151 18H10.2151C10.3351 20.19 11.9751 21.42 13.8951 21.83V24H16.8951V21.85C18.8451 21.48 20.3951 20.35 20.3951 18.3C20.3951 15.46 17.9651 14.49 15.6951 13.9Z" fill="#3D9C73"/>
</svg>
