<svg width="31" height="30" viewBox="0 0 31 30" fill="none" xmlns="http://www.w3.org/2000/svg">
<path d="M15.6952 13.9C13.4252 13.31 12.6952 12.7 12.6952 11.75C12.6952 10.66 13.7052 9.9 15.3952 9.9C17.1752 9.9 17.8352 10.75 17.8952 12H20.1052C20.0352 10.28 18.9852 8.7 16.8952 8.19V6H13.8952V8.16C11.9552 8.58 10.3952 9.84 10.3952 11.77C10.3952 14.08 12.3052 15.23 15.0952 15.9C17.5952 16.5 18.0952 17.38 18.0952 18.31C18.0952 19 17.6052 20.1 15.3952 20.1C13.3352 20.1 12.5252 19.18 12.4152 18H10.2152C10.3352 20.19 11.9752 21.42 13.8952 21.83V24H16.8952V21.85C18.8452 21.48 20.3952 20.35 20.3952 18.3C20.3952 15.46 17.9652 14.49 15.6952 13.9Z" fill="#D43D51"/>
</svg>
