<svg width="31" height="31" viewBox="0 0 31 31" fill="none" xmlns="http://www.w3.org/2000/svg">
<path fill-rule="evenodd" clip-rule="evenodd" d="M15.5 26.2224C21.5751 26.2224 26.5 21.2975 26.5 15.2224C26.5 9.14728 21.5751 4.22241 15.5 4.22241C9.42487 4.22241 4.5 9.14728 4.5 15.2224C4.5 21.2975 9.42487 26.2224 15.5 26.2224ZM15.5 24.4724C20.6086 24.4724 24.75 20.331 24.75 15.2224C24.75 10.1138 20.6086 5.97241 15.5 5.97241C10.3914 5.97241 6.25 10.1138 6.25 15.2224C6.25 20.331 10.3914 24.4724 15.5 24.4724Z" fill="white"/>
<path fill-rule="evenodd" clip-rule="evenodd" d="M12.5438 20.1886C12.1533 19.7981 12.1533 19.1649 12.5438 18.7744L19.871 11.4472C20.2615 11.0567 20.8947 11.0567 21.2852 11.4472C21.6757 11.8377 21.6757 12.4709 21.2852 12.8614L13.958 20.1886C13.5675 20.5791 12.9343 20.5791 12.5438 20.1886Z" fill="white"/>
<path fill-rule="evenodd" clip-rule="evenodd" d="M13.9574 20.1891C13.5669 20.5796 12.9337 20.5796 12.5432 20.1891L9.71483 17.3607C9.3243 16.9702 9.32431 16.337 9.71483 15.9465C10.1054 15.556 10.7385 15.556 11.129 15.9465L13.9574 18.7748C14.3479 19.1654 14.3479 19.7985 13.9574 20.1891Z" fill="white"/>
</svg>
