<svg width="15" height="15" viewBox="0 0 15 15" fill="none" xmlns="http://www.w3.org/2000/svg">
<path d="M4.74996 12.1464C4.5547 12.3417 4.5547 12.6583 4.74996 12.8536C4.94522 13.0488 5.26181 13.0488 5.45707 12.8536L4.74996 12.1464ZM9.74996 7.85355L9.39641 7.5L9.74996 7.85355ZM9.74996 7.14645L10.1035 6.79289L9.74996 7.14645ZM5.45707 2.14645C5.26181 1.95118 4.94523 1.95118 4.74996 2.14645C4.5547 2.34171 4.5547 2.65829 4.74996 2.85355L5.45707 2.14645ZM5.45707 12.8536L10.1035 8.20711L9.39641 7.5L4.74996 12.1464L5.45707 12.8536ZM10.1035 6.79289L5.45707 2.14645L4.74996 2.85355L9.39641 7.5L10.1035 6.79289ZM10.1035 8.20711C10.494 7.81658 10.494 7.18342 10.1035 6.79289L9.39641 7.5V7.5L10.1035 8.20711Z" fill="#0F0F0F"/>
</svg>
