<svg width="30" height="30" viewBox="0 0 30 30" fill="none" xmlns="http://www.w3.org/2000/svg">
<path fill-rule="evenodd" clip-rule="evenodd" d="M20 13C20 16.866 16.866 20 13 20C9.13401 20 6 16.866 6 13C6 9.13401 9.13401 6 13 6C16.866 6 20 9.13401 20 13ZM18.6176 20.032C17.0779 21.2636 15.125 22 13 22C8.02944 22 4 17.9706 4 13C4 8.02944 8.02944 4 13 4C17.9706 4 22 8.02944 22 13C22 15.1251 21.2635 17.0781 20.0318 18.6178L25.2928 23.8788C25.6834 24.2693 25.6834 24.9025 25.2928 25.293C24.9023 25.6835 24.2691 25.6835 23.8786 25.293L18.6176 20.032Z" fill="#481184"/>
</svg>
