<svg width="15" height="15" viewBox="0 0 15 15" fill="none" xmlns="http://www.w3.org/2000/svg">
<path d="M12.1464 10.25C12.3417 10.4452 12.6583 10.4452 12.8536 10.25C13.0488 10.0547 13.0488 9.73812 12.8536 9.54286L12.1464 10.25ZM7.85355 5.24996L8.20711 4.89641L7.85355 5.24996ZM7.14645 5.24996L7.5 5.60352L7.14645 5.24996ZM2.14645 9.54285C1.95118 9.73812 1.95118 10.0547 2.14645 10.25C2.34171 10.4452 2.65829 10.4452 2.85355 10.25L2.14645 9.54285ZM12.8536 9.54286L8.20711 4.89641L7.5 5.60352L12.1464 10.25L12.8536 9.54286ZM6.79289 4.89641L2.14645 9.54285L2.85355 10.25L7.5 5.60352L6.79289 4.89641ZM8.20711 4.89641C7.81658 4.50588 7.18342 4.50589 6.79289 4.89641L7.5 5.60352L7.5 5.60352L8.20711 4.89641Z" fill="#0F0F0F"/>
</svg>
