<svg width="30" height="30" viewBox="0 0 30 30" fill="none" xmlns="http://www.w3.org/2000/svg">
<path fill-rule="evenodd" clip-rule="evenodd" d="M18.0001 10C18.0001 11.6569 16.657 13 15.0001 13C13.3433 13 12.0001 11.6569 12.0001 10C12.0001 8.34315 13.3433 7 15.0001 7C16.657 7 18.0001 8.34315 18.0001 10ZM20.0001 10C20.0001 12.7614 17.7615 15 15.0001 15C12.2387 15 10.0001 12.7614 10.0001 10C10.0001 7.23858 12.2387 5 15.0001 5C17.7615 5 20.0001 7.23858 20.0001 10ZM8.25032 24.1376C8.11611 24.6252 7.6952 25 7.18955 25C6.58409 25 6.10843 24.4712 6.25036 23.8826C7.20258 19.9337 10.7586 17 14.9999 17C19.2411 17 22.7972 19.9337 23.7494 23.8826C23.8913 24.4712 23.4156 25 22.8102 25C22.3045 25 21.8836 24.6252 21.7494 24.1376C20.934 21.1757 18.221 19 14.9999 19C11.7787 19 9.06578 21.1757 8.25032 24.1376Z" fill="#717375"/>
</svg>
